<?xml version="1.0" encoding="UTF-8"?>
<svg width="752pt" height="752pt" version="1.1" viewBox="0 0 752 752" xmlns="http://www.w3.org/2000/svg">
 <path d="m583.19 247.74h-414.38v305.86c0 16.34 13.262 29.598 29.598 29.598h355.19c16.34 0 29.598-13.262 29.598-29.598zm-207.19 187.46c-32.668 0-59.199 26.531-59.199 59.199 0 32.668 26.531 59.199 59.199 59.199s59.199-26.531 59.199-59.199c0-32.668-26.531-59.199-59.199-59.199zm0 19.734c21.785 0 39.465 17.68 39.465 39.465 0 21.785-17.68 39.465-39.465 39.465s-39.465-17.68-39.465-39.465c0-21.785 17.68-39.465 39.465-39.465zm13.949 39.465 2.8906-2.8906c3.8477-3.8477 3.8477-10.102 0-13.949s-10.102-3.8477-13.949 0l-2.8906 2.8906-2.8906-2.8906c-3.8477-3.8477-10.102-3.8477-13.949 0s-3.8477 10.102 0 13.949l2.8906 2.8906-2.8906 2.8906c-3.8477 3.8477-3.8477 10.102 0 13.949 3.8477 3.8477 10.102 3.8477 13.949 0l2.8906-2.8906 2.8906 2.8906c3.8477 3.8477 10.102 3.8477 13.949 0 3.8477-3.8477 3.8477-10.102 0-13.949zm153.78-187.46c0-16.34-13.262-29.598-29.598-29.598h-276.25c-16.34 0-29.598 13.262-29.598 29.598v78.93c0 16.34 13.262 29.598 29.598 29.598h276.25c16.34 0 29.598-13.262 29.598-29.598v-78.93zm-19.734 0v78.93c0 5.4453-4.4219 9.8672-9.8672 9.8672h-276.25c-5.4453 0-9.8672-4.4219-9.8672-9.8672v-78.93c0-5.4453 4.4219-9.8672 9.8672-9.8672h276.25c5.4453 0 9.8672 4.4219 9.8672 9.8672zm-83.863 49.332v9.8672c0 5.4453 4.4219 9.8672 9.8672 9.8672 5.4453 0 9.8672-4.4219 9.8672-9.8672v-39.465c0-5.4453-4.4219-9.8672-9.8672-9.8672-5.4453 0-9.8672 4.4219-9.8672 9.8672v9.8672h-9.8672v-9.8672c0-5.4453-4.4219-9.8672-9.8672-9.8672-5.4453 0-9.8672 4.4219-9.8672 9.8672v19.734c0 5.4453 4.4219 9.8672 9.8672 9.8672h19.734zm-118.39 0v9.8672c0 5.4453 4.4219 9.8672 9.8672 9.8672 5.4453 0 9.8672-4.4219 9.8672-9.8672v-39.465c0-5.4453-4.4219-9.8672-9.8672-9.8672-5.4453 0-9.8672 4.4219-9.8672 9.8672v9.8672h-9.8672v-9.8672c0-5.4453-4.4219-9.8672-9.8672-9.8672s-9.8672 4.4219-9.8672 9.8672v19.734c0 5.4453 4.4219 9.8672 9.8672 9.8672h19.734zm78.93-22.199c0-9.5312-7.7344-17.266-17.266-17.266h-14.801c-9.5312 0-17.266 7.7344-17.266 17.266v24.664c0 9.5312 7.7344 17.266 17.266 17.266h14.801c9.5312 0 17.266-7.7344 17.266-17.266v-24.664zm-29.598 2.4648v19.734h9.8672v-19.734zm58.035-167.73h-230.69c-16.34 0-29.598 13.262-29.598 29.598v29.598h230.69l29.598-59.199zm22.062 0-29.598 59.199h161.63v-29.598c0-16.34-13.262-29.598-29.598-29.598h-102.43zm92.566 19.734c-5.4453 0-9.8672 4.4219-9.8672 9.8672 0 5.4453 4.4219 9.8672 9.8672 9.8672 5.4453 0 9.8672-4.4219 9.8672-9.8672 0-5.4453-4.4219-9.8672-9.8672-9.8672zm-39.465 0c-5.4453 0-9.8672 4.4219-9.8672 9.8672 0 5.4453 4.4219 9.8672 9.8672 9.8672s9.8672-4.4219 9.8672-9.8672c0-5.4453-4.4219-9.8672-9.8672-9.8672zm-39.465 0c-5.4453 0-9.8672 4.4219-9.8672 9.8672 0 5.4453 4.4219 9.8672 9.8672 9.8672 5.4453 0 9.8672-4.4219 9.8672-9.8672 0-5.4453-4.4219-9.8672-9.8672-9.8672z" fill-rule="evenodd"/>
</svg>
